<svg width="80" height="26" viewBox="0 0 80 26" fill="none" xmlns="http://www.w3.org/2000/svg">
<rect width="76" height="24" fill="#FAFAFA"/>
<path d="M37.043 26C38.2521 26 39.3121 25.7815 40.2229 25.3446C41.1337 24.9077 41.8482 24.3069 42.3664 23.5423C42.8847 22.7776 43.1438 21.896 43.1438 20.8973C43.1438 18.5722 41.7462 16.9649 38.951 16.0754L35.7239 15.0689C35.0958 14.8661 34.6168 14.5852 34.287 14.2263C33.973 13.8518 33.8159 13.4226 33.8159 12.9389C33.8159 12.2991 34.0593 11.7841 34.5461 11.394C35.0487 10.9883 35.7082 10.7854 36.5248 10.7854C37.4356 10.7854 38.2364 11.0273 38.9274 11.5111C39.6183 11.9792 40.1366 12.6502 40.482 13.5241L43.1202 12.3537C42.6491 11.0429 41.8247 9.9896 40.6469 9.19376C39.4849 8.39792 38.1108 8 36.5248 8C35.3784 8 34.3577 8.21847 33.4626 8.6554C32.5832 9.07672 31.8923 9.6697 31.3898 10.4343C30.9029 11.199 30.6595 12.0806 30.6595 13.0793C30.6595 14.2185 31.005 15.2094 31.696 16.052C32.3869 16.8791 33.4155 17.5111 34.7817 17.948L38.1501 19.0247C38.7625 19.2276 39.2179 19.4928 39.5163 19.8205C39.8303 20.1482 39.9874 20.5696 39.9874 21.0845C39.9874 21.7243 39.7283 22.2393 39.2101 22.6294C38.7075 23.0195 38.0402 23.2146 37.2079 23.2146C36.2029 23.2146 35.2999 22.9337 34.499 22.3719C33.6982 21.7945 33.0857 21.0065 32.6617 20.0078L30 21.1547C30.3141 22.1222 30.8087 22.9727 31.484 23.7061C32.1749 24.4239 32.9915 24.9857 33.9337 25.3914C34.8916 25.7971 35.928 26 37.043 26Z" fill="#1E1D25"/>
<path d="M49.5408 26C51.2054 26 52.5402 25.4538 53.5452 24.3615V25.7191H56.466V17.2458C56.466 16.3563 56.2383 15.5683 55.7829 14.8817C55.3275 14.1951 54.6994 13.6645 53.8985 13.29C53.1134 12.8999 52.1947 12.7048 51.1426 12.7048C49.8549 12.7048 48.7085 13.0091 47.7035 13.6177C46.6985 14.2263 46.0076 15.0299 45.6307 16.0286L48.1511 17.2458C48.3866 16.6684 48.7557 16.2081 49.2582 15.8648C49.7607 15.5059 50.3496 15.3264 51.0248 15.3264C51.7315 15.3264 52.2968 15.5137 52.7208 15.8882C53.1605 16.2471 53.3803 16.6996 53.3803 17.2458V17.6671L49.5644 18.2757C48.0569 18.5254 46.9419 19.0013 46.2195 19.7035C45.4972 20.4057 45.136 21.2874 45.136 22.3485C45.136 23.472 45.5365 24.3615 46.3373 25.0169C47.1382 25.6723 48.206 26 49.5408 26ZM48.3395 22.2315C48.3395 21.342 48.9441 20.7802 50.1533 20.5462L53.3803 20.0078V20.5228C53.3803 21.3966 53.0741 22.1378 52.4617 22.7464C51.8649 23.355 51.0798 23.6593 50.1061 23.6593C49.5879 23.6593 49.1639 23.5345 48.8342 23.2848C48.5044 23.0195 48.3395 22.6684 48.3395 22.2315Z" fill="#1E1D25"/>
<path d="M59.318 25.7191H62.4038V18.6268C62.4038 17.6593 62.6707 16.9103 63.2046 16.3797C63.7543 15.8336 64.4609 15.5605 65.3246 15.5605H66.4317V12.8453H65.6779C64.8928 12.8453 64.2018 12.9857 63.6051 13.2666C63.0084 13.5475 62.5451 14.0546 62.2153 14.788V12.9857H59.318V25.7191Z" fill="#1E1D25"/>
<path d="M68.1282 25.7191H71.2139V21.8335L72.8628 20.0546L76.4667 25.7191H80L75.1712 18.1118L79.9058 12.9857H76.0663L71.2139 18.0416V8H68.1282V25.7191Z" fill="#1E1D25"/>
<path d="M19.7161 25.7161C19.7161 14.8722 10.8438 6 0 6C0 6 3.52073 18.2521 0 25.7161C7.7456 25.7161 19.7161 25.7161 19.7161 25.7161Z" fill="#4F46E5"/>
<path d="M22.3449 25.7161C22.3449 18.4868 16.43 12.572 9.20081 12.572C9.20081 12.572 11.548 20.7401 9.20081 25.7161C14.3645 25.7161 22.3449 25.7161 22.3449 25.7161Z" fill="#2DD4BF"/>
</svg>
