<svg width="78" height="24" viewBox="0 0 78 24" fill="none" xmlns="http://www.w3.org/2000/svg">
<path d="M36.245 24C37.4042 24 38.4205 23.7815 39.2937 23.3446C40.167 22.9077 40.852 22.3069 41.3488 21.5423C41.8457 20.7776 42.0941 19.896 42.0941 18.8973C42.0941 16.5722 40.7541 14.9649 38.0742 14.0754L34.9803 13.0689C34.3781 12.8661 33.9189 12.5852 33.6027 12.2263C33.3016 11.8518 33.151 11.4226 33.151 10.9389C33.151 10.2991 33.3844 9.78414 33.8511 9.39402C34.3329 8.9883 34.9652 8.78544 35.7481 8.78544C36.6214 8.78544 37.3892 9.02731 38.0516 9.51105C38.7141 9.97919 39.2109 10.6502 39.5421 11.5241L42.0715 10.3537C41.6198 9.04291 40.8294 7.9896 39.7002 7.19376C38.5861 6.39792 37.2687 6 35.7481 6C34.6491 6 33.6704 6.21847 32.8123 6.6554C31.9692 7.07672 31.3067 7.6697 30.8249 8.43433C30.3582 9.19896 30.1248 10.0806 30.1248 11.0793C30.1248 12.2185 30.4561 13.2094 31.1185 14.052C31.781 14.8791 32.7671 15.5111 34.0769 15.948L37.3064 17.0247C37.8936 17.2276 38.3302 17.4928 38.6162 17.8205C38.9173 18.1482 39.0679 18.5696 39.0679 19.0845C39.0679 19.7243 38.8195 20.2393 38.3226 20.6294C37.8409 21.0195 37.201 21.2146 36.403 21.2146C35.4395 21.2146 34.5738 20.9337 33.8059 20.3719C33.0381 19.7945 32.4509 19.0065 32.0444 18.0078L29.4925 19.1547C29.7936 20.1222 30.2679 20.9727 30.9153 21.7061C31.5777 22.4239 32.3606 22.9857 33.2639 23.3914C34.1823 23.7971 35.176 24 36.245 24Z" fill="white"/>
<path d="M48.2273 24C49.8232 24 51.1029 23.4538 52.0665 22.3615V23.7191H54.8668V15.2458C54.8668 14.3563 54.6485 13.5683 54.2119 12.8817C53.7753 12.1951 53.173 11.6645 52.4052 11.29C51.6524 10.8999 50.7717 10.7048 49.7629 10.7048C48.5284 10.7048 47.4293 11.0091 46.4657 11.6177C45.5022 12.2263 44.8397 13.0299 44.4784 14.0286L46.8948 15.2458C47.1207 14.6684 47.4745 14.2081 47.9563 13.8648C48.438 13.5059 49.0026 13.3264 49.65 13.3264C50.3275 13.3264 50.8695 13.5137 51.276 13.8882C51.6976 14.2471 51.9084 14.6996 51.9084 15.2458V15.6671L48.2498 16.2757C46.8045 16.5254 45.7356 17.0013 45.043 17.7035C44.3504 18.4057 44.0042 19.2874 44.0042 20.3485C44.0042 21.472 44.3881 22.3615 45.1559 23.0169C45.9237 23.6723 46.9475 24 48.2273 24ZM47.0755 20.2315C47.0755 19.342 47.6551 18.7802 48.8144 18.5462L51.9084 18.0078V18.5228C51.9084 19.3966 51.6148 20.1378 51.0276 20.7464C50.4555 21.355 49.7027 21.6593 48.7693 21.6593C48.2724 21.6593 47.8659 21.5345 47.5498 21.2848C47.2336 21.0195 47.0755 20.6684 47.0755 20.2315Z" fill="white"/>
<path d="M57.6012 23.7191H60.5596V16.6268C60.5596 15.6593 60.8156 14.9103 61.3274 14.3797C61.8544 13.8336 62.5319 13.5605 63.36 13.5605H64.4214V10.8453H63.6987C62.9459 10.8453 62.2835 10.9857 61.7114 11.2666C61.1393 11.5475 60.6951 12.0546 60.3789 12.788V10.9857H57.6012V23.7191Z" fill="white"/>
<path d="M66.0479 23.7191H69.0064V19.8335L70.5872 18.0546L74.0425 23.7191H77.43L72.8004 16.1118L77.3397 10.9857H73.6586L69.0064 16.0416V6H66.0479V23.7191Z" fill="white"/>
<path d="M19.6328 23.7161C19.6328 12.8722 11.1265 4 0.729996 4C0.729996 4 4.10549 16.2521 0.729996 23.7161C8.15609 23.7161 19.6328 23.7161 19.6328 23.7161Z" fill="#4F46E5"/>
<path d="M22.1532 23.7163C22.1532 16.4871 16.4823 10.5723 9.5513 10.5723C9.5513 10.5723 11.8016 18.7404 9.5513 23.7163C14.502 23.7163 22.1532 23.7163 22.1532 23.7163Z" fill="#2DD4BF"/>
</svg>
